<?xml version="1.0" encoding="UTF-8"?>
<svg version="1.1" xmlns="http://www.w3.org/2000/svg" width="32" height="32">
<path d="M0 0 C10.56 0 21.12 0 32 0 C32 10.56 32 21.12 32 32 C21.44 32 10.88 32 0 32 C0 21.44 0 10.88 0 0 Z " fill="#7E5E35" transform="translate(0,0)"/>
<path d="M0 0 C2.97 0 5.94 0 9 0 C9 10.56 9 21.12 9 32 C-1.56 32 -12.12 32 -23 32 C-23 28.37 -23 24.74 -23 21 C-22.46375 21.7425 -21.9275 22.485 -21.375 23.25 C-18.10597625 27.03518539 -15.47383358 29.67258085 -10.34375 30.3515625 C-5.04986693 30.50810205 -1.32493496 30.34833674 3 27 C3.66 27 4.32 27 5 27 C5.66 25.35 6.32 23.7 7 22 C6.01 21.67 5.02 21.34 4 21 C4 21.66 4 22.32 4 23 C-3.09784913 24.81774185 -9.65081658 26.43230491 -17 26 C-17 24.02 -17 22.04 -17 20 C-14.03 19.34 -11.06 18.68 -8 18 C-8.33 18.66 -8.66 19.32 -9 20 C-11.32156597 20.40729228 -13.6568787 20.74438677 -16 21 C-14.35 21.33 -12.7 21.66 -11 22 C-11.66 22.66 -12.32 23.32 -13 24 C-11.68 24 -10.36 24 -9 24 C-9.33 23.01 -9.66 22.02 -10 21 C-9.34 20.67 -8.68 20.34 -8 20 C-7.67 19.01 -7.34 18.02 -7 17 C-4.8203125 16.05078125 -4.8203125 16.05078125 -2.125 15.3125 C-0.79855469 14.93544922 -0.79855469 14.93544922 0.5546875 14.55078125 C3 14 3 14 6 14 C5.67 12.68 5.34 11.36 5 10 C5.99 10 6.98 10 8 10 C5.61820737 6.25718301 3.25524265 3.02272532 0 0 Z " fill="#4B3812" transform="translate(23,0)"/>
<path d="M0 0 C1.32 0 2.64 0 4 0 C4 0.99 4 1.98 4 3 C2.2984375 3.680625 2.2984375 3.680625 0.5625 4.375 C-3.04721692 5.57095806 -3.04721692 5.57095806 -4 8 C-3.39671875 7.84402344 -2.7934375 7.68804688 -2.171875 7.52734375 C-1.37265625 7.33269531 -0.5734375 7.13804688 0.25 6.9375 C1.03890625 6.74027344 1.8278125 6.54304688 2.640625 6.33984375 C5.10394822 5.98502733 6.65604132 6.23122456 9 7 C8.01 7 7.02 7 6 7 C5.7834375 7.8971875 5.7834375 7.8971875 5.5625 8.8125 C5.1127561 10.56150404 4.57107659 12.28677023 4 14 C1.69 14.33 -0.62 14.66 -3 15 C-2.67 14.34 -2.34 13.68 -2 13 C-2.33 12.34 -2.66 11.68 -3 11 C-1.02 10.34 0.96 9.68 3 9 C0.69 9.33 -1.62 9.66 -4 10 C-4 11.98 -4 13.96 -4 16 C-2.81921875 15.7834375 -1.6384375 15.566875 -0.421875 15.34375 C1.13538373 15.0623177 2.69267724 14.78107777 4.25 14.5 C5.02730469 14.35691406 5.80460938 14.21382812 6.60546875 14.06640625 C7.35957031 13.93105469 8.11367188 13.79570312 8.890625 13.65625 C9.58188477 13.53056641 10.27314453 13.40488281 10.98535156 13.27539062 C13 13 13 13 17 13 C17 12.34 17 11.68 17 11 C18.32 11.33 19.64 11.66 21 12 C19.16000951 15.89645046 17.02187934 18.26729119 13.15625 20.265625 C8.17687109 21.96150043 2.70294067 22.19477812 -2.15625 20.046875 C-5.72170164 17.65983534 -8.36996718 15.0271399 -10 11 C-10.1875 7.1875 -10.1875 7.1875 -10 4 C-8.68 4 -7.36 4 -6 4 C-5.67 3.34 -5.34 2.68 -5 2 C-3.35 2 -1.7 2 0 2 C0 1.34 0 0.68 0 0 Z " fill="#764B16" transform="translate(10,10)"/>
<path d="M0 0 C3.01558374 1.50779187 5.12514885 3.19094467 7 6 C7.66796875 8.203125 7.66796875 8.203125 8 10 C7.01 10.495 7.01 10.495 6 11 C6 11.99 6 12.98 6 14 C-0.28571429 16.42857143 -0.28571429 16.42857143 -4 15 C-3.34 15 -2.68 15 -2 15 C-2 14.34 -2 13.68 -2 13 C-0.02 12.67 1.96 12.34 4 12 C3.67 11.01 3.34 10.02 3 9 C1.35 9.33 -0.3 9.66 -2 10 C-2.33 8.02 -2.66 6.04 -3 4 C-3.99 4.66 -4.98 5.32 -6 6 C-6.886875 5.95875 -7.77375 5.9175 -8.6875 5.875 C-12.62059045 6.02341851 -14.88254873 7.23677138 -18.265625 9.125 C-20 10 -20 10 -22 10 C-20.92885617 6.25099658 -19.28938279 3.38099678 -16.16796875 0.9609375 C-11.06489911 -1.30096364 -5.39674645 -0.89528392 0 0 Z " fill="#83643A" transform="translate(23,0)"/>
<path d="M0 0 C0.33 0 0.66 0 1 0 C1 4.29 1 8.58 1 13 C-9.56 13 -20.12 13 -31 13 C-31 9.37 -31 5.74 -31 2 C-30.46375 2.7425 -29.9275 3.485 -29.375 4.25 C-26.10597625 8.03518539 -23.47383358 10.67258085 -18.34375 11.3515625 C-13.04986693 11.50810205 -9.32493496 11.34833674 -5 8 C-4.34 8 -3.68 8 -3 8 C-1.92474806 5.34771188 -0.90543849 2.71631546 0 0 Z " fill="#20262E" transform="translate(31,19)"/>
<path d="M0 0 C1.32 0 2.64 0 4 0 C4 0.99 4 1.98 4 3 C2.2984375 3.680625 2.2984375 3.680625 0.5625 4.375 C-3.04721692 5.57095806 -3.04721692 5.57095806 -4 8 C-3.39671875 7.84402344 -2.7934375 7.68804688 -2.171875 7.52734375 C-1.37265625 7.33269531 -0.5734375 7.13804688 0.25 6.9375 C1.03890625 6.74027344 1.8278125 6.54304688 2.640625 6.33984375 C5.10394822 5.98502733 6.65604132 6.23122456 9 7 C8.01 7 7.02 7 6 7 C5.7834375 7.8971875 5.7834375 7.8971875 5.5625 8.8125 C5.1127561 10.56150404 4.57107659 12.28677023 4 14 C1.69 14.33 -0.62 14.66 -3 15 C-2.67 14.34 -2.34 13.68 -2 13 C-2.33 12.34 -2.66 11.68 -3 11 C-1.02 10.34 0.96 9.68 3 9 C1.39125 9.495 1.39125 9.495 -0.25 10 C-4 11 -4 11 -8 11 C-8 10.34 -8 9.68 -8 9 C-8.66 9 -9.32 9 -10 9 C-10 7.35 -10 5.7 -10 4 C-8.68 4 -7.36 4 -6 4 C-5.67 3.34 -5.34 2.68 -5 2 C-3.35 2 -1.7 2 0 2 C0 1.34 0 0.68 0 0 Z " fill="#766F22" transform="translate(10,10)"/>
<path d="M0 0 C2.97 0 5.94 0 9 0 C9.02688864 3.12505696 9.04678462 6.24988425 9.0625 9.375 C9.07087891 10.26445312 9.07925781 11.15390625 9.08789062 12.0703125 C9.09111328 12.92109375 9.09433594 13.771875 9.09765625 14.6484375 C9.10289307 15.43395996 9.10812988 16.21948242 9.11352539 17.02880859 C9 19 9 19 8 21 C6.68 21 5.36 21 4 21 C4 20.01 4 19.02 4 18 C0.7 18.66 -2.6 19.32 -6 20 C-5 18 -5 18 -3.15234375 17.3671875 C-2.05599609 17.12355469 -2.05599609 17.12355469 -0.9375 16.875 C-0.20402344 16.70742188 0.52945312 16.53984375 1.28515625 16.3671875 C1.85105469 16.24601562 2.41695312 16.12484375 3 16 C3 15.34 3 14.68 3 14 C3.99 14 4.98 14 6 14 C5.67 12.68 5.34 11.36 5 10 C5.99 10 6.98 10 8 10 C5.61820737 6.25718301 3.25524265 3.02272532 0 0 Z " fill="#7F5B1F" transform="translate(23,0)"/>
<path d="M0 0 C0.33 0.66 0.66 1.32 1 2 C2.98 1.34 4.96 0.68 7 0 C7.33 1.32 7.66 2.64 8 4 C6.02 4.33 4.04 4.66 2 5 C2 5.66 2 6.32 2 7 C-3.10334017 8.905247 -7.46342706 10.42589023 -13 10 C-12.67 9.01 -12.34 8.02 -12 7 C-9.66666667 6.33333333 -7.33333333 5.66666667 -5 5 C-4.67 4.01 -4.34 3.02 -4 2 C-1.9375 0.8125 -1.9375 0.8125 0 0 Z " fill="#6F2333" transform="translate(19,8)"/>
<path d="M0 0 C0 0.66 0 1.32 0 2 C1.98 1.67 3.96 1.34 6 1 C10 5.75 10 5.75 10 8 C9.01 8.495 9.01 8.495 8 9 C8 9.99 8 10.98 8 12 C1.71428571 14.42857143 1.71428571 14.42857143 -2 13 C-1.34 13 -0.68 13 0 13 C0 12.34 0 11.68 0 11 C1.98 10.67 3.96 10.34 6 10 C5.67 9.01 5.34 8.02 5 7 C3.35 7.33 1.7 7.66 0 8 C-0.33 6.02 -0.66 4.04 -1 2 C-1.99 2.66 -2.98 3.32 -4 4 C-4.99 4 -5.98 4 -7 4 C-7 3.34 -7 2.68 -7 2 C-2.25 0 -2.25 0 0 0 Z " fill="#83622C" transform="translate(21,2)"/>
<path d="M0 0 C1.32 0 2.64 0 4 0 C4 0.99 4 1.98 4 3 C-0.58154261 5.39542583 -5.0276578 7.50829734 -10 9 C-10 7.35 -10 5.7 -10 4 C-8.68 4 -7.36 4 -6 4 C-5.67 3.34 -5.34 2.68 -5 2 C-3.35 2 -1.7 2 0 2 C0 1.34 0 0.68 0 0 Z " fill="#84623C" transform="translate(10,10)"/>
<path d="M0 0 C0.61875 0.78375 1.2375 1.5675 1.875 2.375 C3.89858661 4.96837647 3.89858661 4.96837647 6 7 C5.625 9.125 5.625 9.125 5 11 C3.35 11 1.7 11 0 11 C0 7.37 0 3.74 0 0 Z " fill="#085293" transform="translate(0,21)"/>
<path d="M0 0 C0.66 0 1.32 0 2 0 C2 0.99 2 1.98 2 3 C0.02 3.33 -1.96 3.66 -4 4 C-4 4.66 -4 5.32 -4 6 C-9.10334017 7.905247 -13.46342706 9.42589023 -19 9 C-14.39916162 4.39916162 -6.18124572 3.46102172 0 2 C0 1.34 0 0.68 0 0 Z " fill="#5E2913" transform="translate(25,9)"/>
<path d="M0 0 C0.33 1.98 0.66 3.96 1 6 C0.01 6 -0.98 6 -2 6 C-2.99 6.33 -3.98 6.66 -5 7 C-7.6875 6.5625 -7.6875 6.5625 -10 6 C-9.34 5.67 -8.68 5.34 -8 5 C-8 4.01 -8 3.02 -8 2 C-2.25 0 -2.25 0 0 0 Z " fill="#743E27" transform="translate(20,4)"/>
<path d="M0 0 C2.97 0 5.94 0 9 0 C8.2575 0.721875 7.515 1.44375 6.75 2.1875 C4.30709485 4.68592573 2.1318953 7.23643202 0 10 C0 6.7 0 3.4 0 0 Z " fill="#3C3523" transform="translate(0,0)"/>
<path d="M0 0 C2.97 0 5.94 0 9 0 C9 3.3 9 6.6 9 10 C8.443125 9.278125 7.88625 8.55625 7.3125 7.8125 C5.02090666 5.02542701 2.58540143 2.51358472 0 0 Z " fill="#131820" transform="translate(23,0)"/>
<path d="M0 0 C0.33 0.66 0.66 1.32 1 2 C0.01 2.495 0.01 2.495 -1 3 C-1 3.99 -1 4.98 -1 6 C-7.28571429 8.42857143 -7.28571429 8.42857143 -11 7 C-10.34 7 -9.68 7 -9 7 C-9 6.34 -9 5.68 -9 5 C-7.02 4.67 -5.04 4.34 -3 4 C-3 3.01 -3 2.02 -3 1 C-2.01 0.67 -1.02 0.34 0 0 Z " fill="#886A24" transform="translate(30,8)"/>
<path d="M0 0 C0.66 0 1.32 0 2 0 C2 0.66 2 1.32 2 2 C3.32 2 4.64 2 6 2 C6 4.31 6 6.62 6 9 C0.42857143 3.85714286 0.42857143 3.85714286 0 0 Z " fill="#6D512C" transform="translate(0,19)"/>
<path d="M0 0 C0.89203125 0.00902344 1.7840625 0.01804687 2.703125 0.02734375 C3.37859375 0.03894531 4.0540625 0.05054687 4.75 0.0625 C2.02835324 2.78414676 -0.54514545 3.16822476 -4.25 4.0625 C-5.57 4.0625 -6.89 4.0625 -8.25 4.0625 C-8.58 3.0725 -8.91 2.0825 -9.25 1.0625 C-6.09493858 0.12630187 -3.28413498 -0.0432123 0 0 Z " fill="#826522" transform="translate(10.25,16.9375)"/>
<path d="M0 0 C-0.33 1.32 -0.66 2.64 -1 4 C-2.65 4 -4.3 4 -6 4 C-6.33 3.34 -6.66 2.68 -7 2 C-4 0 -4 0 0 0 Z " fill="#2E3238" transform="translate(30,27)"/>
<path d="M0 0 C0 0.66 0 1.32 0 2 C1.32 2.33 2.64 2.66 4 3 C2.35 3.33 0.7 3.66 -1 4 C-1 3.34 -1 2.68 -1 2 C-1.99 2.66 -2.98 3.32 -4 4 C-4.99 4 -5.98 4 -7 4 C-7 3.34 -7 2.68 -7 2 C-2.25 0 -2.25 0 0 0 Z " fill="#8D5822" transform="translate(21,2)"/>
<path d="M0 0 C0 0.99 0 1.98 0 3 C-3.3 3.66 -6.6 4.32 -10 5 C-6.95224467 1.95224467 -4.42002798 0 0 0 Z " fill="#5F0F36" transform="translate(16,12)"/>
<path d="M0 0 C-1.32 1.32 -2.64 2.64 -4 4 C-4.66 2.68 -5.32 1.36 -6 0 C-3.50907189 -1.24546405 -2.58919267 -0.7767578 0 0 Z " fill="#8C6C38" transform="translate(26,6)"/>
</svg>
